<svg xmlns="http://www.w3.org/2000/svg" viewBox="0 0 64 64" role="img" aria-label="AI Bubble Tracker logo">
  <defs>
    <linearGradient id="bg" x1="8" y1="6" x2="58" y2="60" gradientUnits="userSpaceOnUse">
      <stop stop-color="#fff8ec"/>
      <stop offset=".55" stop-color="#e7f8fa"/>
      <stop offset="1" stop-color="#f9eef0"/>
    </linearGradient>
    <linearGradient id="bubble" x1="16" y1="12" x2="49" y2="52" gradientUnits="userSpaceOnUse">
      <stop stop-color="#ffffff" stop-opacity=".96"/>
      <stop offset=".48" stop-color="#dff8fb" stop-opacity=".9"/>
      <stop offset="1" stop-color="#ffffff" stop-opacity=".68"/>
    </linearGradient>
  </defs>
  <rect width="64" height="64" rx="16" fill="url(#bg)"/>
  <circle cx="32" cy="33" r="22" fill="url(#bubble)" stroke="#0e7c86" stroke-width="2.6"/>
  <circle cx="22" cy="20" r="6" fill="#ffffff" fill-opacity=".72" stroke="#365f91" stroke-width="1.7"/>
  <circle cx="47" cy="22" r="8" fill="#ffffff" fill-opacity=".72" stroke="#b43f46" stroke-width="1.8"/>
  <circle cx="49" cy="45" r="5" fill="#ffffff" fill-opacity=".76" stroke="#0e7c86" stroke-width="1.6"/>
  <circle cx="16" cy="43" r="4" fill="#ffffff" fill-opacity=".82" stroke="#b87914" stroke-width="1.4"/>
  <path d="M22 20 32 33 47 22M32 33l17 12M32 33 16 43" fill="none" stroke="#8ea4ad" stroke-width="1.2" stroke-linecap="round" opacity=".45"/>
  <circle cx="32" cy="33" r="3" fill="#0e7c86"/>
  <path d="M20 40 27 22h5l7 18h-5l-1.2-3.6h-6.6L25 40h-5Zm7.4-7.5h4.2L29.5 26l-2.1 6.5Z" fill="#101418"/>
  <path d="M42 22h5v18h-5V22Z" fill="#101418"/>
  <path d="M18 17c5-7 14-10 23-7" fill="none" stroke="#ffffff" stroke-width="3.5" stroke-linecap="round" opacity=".82"/>
</svg>
